# 3ds Max Wavefront OBJ Exporter v0.99 - (c)2007 guruware
# File Created: 26.10.2021 12:13:39

mtllib 001.mtl

#
# object 001
#

v  -1.7374 175.2601 0.0000
v  6.1625 202.9830 0.0000
v  2.9574 202.7529 -1.8564
v  -7.4114 177.8270 -2.6145
v  2.8917 63.3153 0.0000
v  -0.1325 63.3172 -1.4683
v  -1.1291 52.4790 -2.0838
v  4.8665 51.5893 0.0000
v  8.6737 37.1450 0.0000
v  11.7698 33.6621 0.0000
v  7.8270 40.1359 -0.7701
v  -27.8971 36.5968 -3.1433
v  -30.9818 37.8828 -3.1433
v  -32.4831 27.0112 -3.1433
v  -29.6761 25.5799 -3.1433
v  13.9196 219.9213 0.0000
v  13.8075 219.7645 0.0000
v  -13.3028 150.0221 -2.6145
v  -6.1726 144.9598 0.0000
v  -16.1591 128.5444 -2.6574
v  -6.8703 122.9726 0.0000
v  -6.4151 101.3306 -1.6766
v  -1.4322 98.4434 0.0000
v  -0.8619 202.8464 -0.0137
v  -12.6098 181.6726 -0.0117
v  -19.4481 156.3949 -0.0101
v  -25.4757 128.7297 -0.0091
v  4.3412 81.5186 0.0000
v  -0.1047 84.2669 -1.4683
v  -16.9301 103.1074 -0.0087
v  -7.6968 102.2320 -2.8274
v  -13.7236 85.3518 -0.0076
v  -1.3059 84.9442 -3.0695
v  -15.4333 63.4477 -0.0067
v  -1.2668 63.3191 -3.2227
v  -31.3348 10.1698 -3.1433
v  -27.7366 9.5946 -3.1433
v  -25.9436 -2.7930 -3.1433
v  -23.6364 0.4492 -3.1433
v  3.2816 36.7547 -2.6911
v  -12.6653 37.7972 -2.6911
v  -8.3074 28.8142 -2.6911
v  1.8788 29.3730 -2.6824
v  -6.9645 17.4126 -2.6911
v  0.4352 16.8863 -2.6911
v  -8.5592 6.2301 -3.1433
v  0.2601 6.0194 -3.1433
v  -6.1231 0.5416 -3.1333
v  -0.5642 0.4263 -3.1433
v  -15.5303 0.2829 -3.1433
v  -12.7985 -3.5188 -3.1433
v  -30.7931 54.9246 -0.0176
v  -33.0746 59.4578 0.0000
v  -31.8585 54.5809 -0.8986
v  5.3427 45.1172 -1.0492
v  7.5090 45.0702 -0.0132
v  -5.0791 44.2650 -3.2337
v  -30.1299 50.7626 -1.5879
v  -27.0654 52.4784 -0.0109
v  -32.9437 54.2164 -0.0182
v  -32.3534 49.7447 0.0000
v  -18.8819 41.1234 -2.4271
v  -17.9711 42.3307 -2.6055
v  5.8853 39.2983 -1.0329
v  6.9370 36.8852 0.0000
v  -31.5680 43.8146 0.0000
v  -31.8227 38.2405 0.0000
v  -30.7417 43.6363 -1.9062
v  -22.7602 53.9645 -0.0069
v  -2.3690 52.6858 -3.4331
v  -6.0431 45.6226 -3.9158
v  -33.2268 27.6474 0.0000
v  -32.0340 10.1542 0.0000
v  -26.4342 -3.3103 -0.0000
v  -12.7804 -4.0642 -0.0000
v  -5.8442 0.1462 -0.0000
v  -0.0182 0.0199 -0.0000
v  -0.5639 0.3910 -3.1132
v  0.8530 5.8422 0.0000
v  0.2940 6.0152 -3.1129
v  -0.5285 0.4217 -3.1135
v  1.0362 17.1259 0.0000
v  0.4762 16.8862 -2.6630
v  3.5476 29.8569 0.0000
v  -9.2985 27.2777 0.0000
v  -8.0846 16.9728 0.0000
v  -9.5260 6.8659 0.0000
v  -15.8266 1.4908 0.0000
v  -23.1530 1.6410 0.0000
v  -26.8588 9.9068 0.0000
v  -28.6117 24.3545 0.0000
v  -26.8829 35.6218 0.0000
v  9.9791 40.0336 -0.0114
v  -26.9303 45.9225 -2.7498
v  -17.2751 43.6241 -3.5992
v  -13.1816 36.6908 0.0000
v  -19.0007 40.0796 0.0000
v  -23.6782 40.8879 -3.0652
v  -23.4284 39.4285 0.0000
v  -2.3198 52.6708 -3.4170
v  -6.0053 45.5735 -3.9102
v  -26.7542 45.8575 -2.7516
v  -1.2196 63.3175 -3.2044
v  -17.2762 43.5734 -3.5919
v  5.8279 35.5600 0.0000
v  -7.6534 102.2463 -2.8127
v  -1.2604 84.9475 -3.0532
v  -7.4114 177.8270 2.6146
v  2.9574 202.7529 1.8565
v  -1.1291 52.4790 2.0838
v  -0.1325 63.3172 1.4683
v  7.8270 40.1359 0.7701
v  -27.8971 36.5968 3.1433
v  -29.6761 25.5799 3.1433
v  -32.4831 27.0112 3.1433
v  -30.9818 37.8828 3.1433
v  -13.3028 150.0221 2.6146
v  -16.1591 128.5444 2.6574
v  -6.4151 101.3306 1.6767
v  -0.7682 202.8464 0.0138
v  -12.6098 181.6726 0.0118
v  -19.4478 156.3964 0.0102
v  -25.1391 128.7297 0.0092
v  -0.1047 84.2669 1.4683
v  -7.6972 102.2333 2.8274
v  -16.9301 103.1074 0.0088
v  -1.3059 84.9442 3.0695
v  -13.7236 85.3518 0.0076
v  -1.2668 63.3191 3.2227
v  -15.4333 63.4477 0.0067
v  -27.7366 9.5946 3.1433
v  -31.3348 10.1698 3.1433
v  -23.6364 0.4492 3.1433
v  -25.9436 -2.7930 3.1433
v  3.2816 36.7547 2.6911
v  1.8788 29.3730 2.6824
v  -8.3074 28.8142 2.6911
v  -12.6653 37.7972 2.6911
v  0.4352 16.8863 2.6911
v  -6.9645 17.4126 2.6911
v  0.2601 6.0194 3.1433
v  -8.5592 6.2301 3.1433
v  -0.5642 0.4263 3.1433
v  -6.1231 0.5416 3.1333
v  -12.7985 -3.5188 3.1433
v  -15.5303 0.2829 3.1433
v  -30.7931 54.9246 0.0176
v  -31.8585 54.5809 0.8986
v  7.5090 45.0702 0.0132
v  5.3427 45.1172 1.0492
v  -5.0791 44.2650 3.2337
v  -30.1299 50.7626 1.5879
v  -27.0654 52.4784 0.0109
v  -32.9438 54.2189 0.0183
v  -18.8819 41.1234 2.4271
v  -17.9711 42.3307 2.6055
v  5.8853 39.2983 1.0329
v  -30.7417 43.6363 1.9062
v  -2.3690 52.6858 3.4331
v  -22.7602 53.9645 0.0070
v  -6.0431 45.6226 3.9158
v  -0.5639 0.3910 3.1132
v  -0.5285 0.4217 3.1135
v  0.2940 6.0152 3.1129
v  0.4762 16.8862 2.6630
v  9.9791 40.0336 0.0114
v  -17.2751 43.6241 3.5992
v  -26.9303 45.9225 2.7498
v  -23.6782 40.8879 3.0652
v  -6.0053 45.5735 3.9102
v  -2.3198 52.6708 3.4170
v  -26.7542 45.8575 2.7516
v  -1.2197 63.3151 3.2045
v  -17.2762 43.5734 3.5919
v  -7.6536 102.2468 2.8128
v  -1.2604 84.9475 3.0532
# 176 vertices

vn 0.9775 -0.2110 0.0000
vn 0.9257 -0.3782 0.0000
vn 0.0290 0.0723 -0.9970
vn -0.0205 0.0154 -0.9997
vn 0.9988 0.0494 0.0000
vn 0.6608 -0.0094 -0.7505
vn 0.5239 -0.0626 -0.8495
vn 0.9326 0.3610 -0.0000
vn -0.5888 -0.8083 -0.0000
vn 0.5071 -0.8619 -0.0000
vn 0.2285 -0.0070 -0.9735
vn 0.4102 -0.2166 -0.8859
vn -0.5431 0.1586 -0.8245
vn -0.6433 0.0152 -0.7655
vn 0.5374 -0.0270 -0.8429
vn 1.0000 0.0000 -0.0000
vn -0.7992 0.6011 0.0000
vn -0.0252 0.0012 -0.9997
vn 0.9973 -0.0733 -0.0000
vn -0.0356 -0.0146 -0.9993
vn 0.9883 0.1523 -0.0000
vn 0.5796 0.1997 -0.7901
vn 0.9512 0.3087 -0.0000
vn -0.8246 0.5593 0.0852
vn -0.7767 0.3323 -0.5351
vn -0.7924 0.2030 -0.5752
vn -0.9943 -0.0458 0.0960
vn 0.9984 0.0573 0.0000
vn 0.5987 0.1073 -0.7938
vn -0.7713 -0.2095 -0.6010
vn -0.0109 0.0060 -0.9999
vn -0.7647 -0.0415 -0.6431
vn 0.0806 0.0313 -0.9963
vn -0.6776 0.2879 -0.6768
vn 0.0836 0.0092 -0.9965
vn -0.6454 -0.1619 -0.7465
vn 0.5358 0.1560 -0.8298
vn -0.4070 -0.6043 -0.6850
vn 0.2108 0.3378 -0.9173
vn 0.3499 -0.0319 -0.9363
vn -0.3402 -0.3531 -0.8716
vn -0.4465 -0.1540 -0.8814
vn 0.4818 -0.0739 -0.8732
vn -0.5233 0.0181 -0.8520
vn 0.2891 0.0024 -0.9573
vn -0.4002 0.2467 -0.8826
vn 0.3673 -0.0103 -0.9300
vn 0.1492 -0.5622 -0.8135
vn 0.2733 -0.3422 -0.8990
vn -0.1508 0.4449 -0.8828
vn 0.1709 -0.6862 -0.7071
vn 0.6423 0.6328 -0.4325
vn -0.2523 0.9676 -0.0000
vn -0.0835 0.1547 -0.9844
vn 0.3110 0.1556 -0.9376
vn 0.7730 0.3646 -0.5192
vn 0.2145 -0.2431 -0.9460
vn -0.1717 0.1129 -0.9787
vn 0.1360 0.7846 -0.6049
vn -0.8996 -0.0773 -0.4298
vn -1.0000 -0.0056 0.0000
vn -0.0512 -0.5904 -0.8055
vn -0.0526 -0.3095 -0.9494
vn 0.4012 -0.0744 -0.9130
vn 0.4949 -0.8689 -0.0000
vn -0.9987 -0.0510 -0.0000
vn -0.9959 0.0902 0.0000
vn -0.5969 0.1088 -0.7949
vn -0.4023 0.6233 -0.6705
vn 0.0985 0.0096 -0.9951
vn -0.0066 0.0283 -0.9996
vn -0.9990 0.0448 0.0000
vn -0.9724 -0.2335 -0.0000
vn -0.5795 -0.8149 -0.0000
vn 0.2289 -0.9734 -0.0000
vn 0.2405 -0.9707 -0.0000
vn 0.6573 -0.7536 -0.0000
vn 0.2637 -0.8567 -0.4433
vn 0.9962 -0.0875 -0.0000
vn 0.8708 -0.0634 -0.4875
vn 0.7763 -0.4169 -0.4727
vn 0.9932 -0.1163 -0.0000
vn 0.8311 -0.0433 -0.5545
vn 0.9740 -0.2265 -0.0000
vn -0.9738 -0.2275 -0.0000
vn -0.9997 0.0261 0.0000
vn -0.8712 0.4909 0.0000
vn -0.3332 0.9429 0.0000
vn 0.5666 0.8240 0.0000
vn 0.9608 0.2771 0.0000
vn 0.9999 0.0151 0.0000
vn 0.9068 -0.4216 0.0000
vn 0.7765 0.3041 -0.5519
vn -0.1246 0.0817 -0.9888
vn -0.0635 0.0623 -0.9960
vn -0.7648 -0.6443 -0.0000
vn -0.1889 -0.9820 -0.0000
vn 0.1709 -0.3560 -0.9187
vn 0.4843 -0.8749 0.0000
vn 0.5476 -0.1408 -0.8248
vn 0.1810 -0.2244 -0.9575
vn -0.2138 -0.5835 -0.7835
vn 0.6438 -0.0238 -0.7648
vn -0.0384 -0.4299 -0.9020
vn 0.8428 -0.5383 -0.0000
vn 0.5388 0.1989 -0.8186
vn 0.6368 0.1522 -0.7559
vn -0.0205 0.0154 0.9997
vn 0.0245 0.0748 0.9969
vn 0.5239 -0.0626 0.8495
vn 0.6608 -0.0094 0.7505
vn 0.2285 -0.0070 0.9735
vn 0.4102 -0.2166 0.8859
vn 0.5374 -0.0270 0.8429
vn -0.6433 0.0152 0.7655
vn -0.5431 0.1586 0.8245
vn -0.0252 0.0012 0.9997
vn -0.0412 -0.0153 0.9990
vn 0.5796 0.1997 0.7901
vn -0.3441 0.2520 0.9045
vn -0.7762 0.3337 0.5349
vn -0.7941 0.2004 0.5738
vn -0.1505 -0.0076 0.9886
vn 0.5987 0.1073 0.7938
vn -0.0112 0.0059 0.9999
vn -0.7732 -0.2045 0.6002
vn 0.0806 0.0313 0.9963
vn -0.7647 -0.0415 0.6431
vn 0.0835 0.0094 0.9965
vn -0.6776 0.2879 0.6768
vn 0.5358 0.1560 0.8298
vn -0.6454 -0.1619 0.7465
vn 0.2108 0.3378 0.9173
vn -0.4070 -0.6043 0.6850
vn 0.3499 -0.0319 0.9363
vn 0.4818 -0.0739 0.8732
vn -0.4465 -0.1540 0.8814
vn -0.3402 -0.3531 0.8716
vn 0.2891 0.0024 0.9573
vn -0.5233 0.0181 0.8520
vn 0.3673 -0.0103 0.9300
vn -0.4002 0.2467 0.8826
vn 0.2733 -0.3422 0.8990
vn 0.1492 -0.5622 0.8135
vn 0.1709 -0.6862 0.7071
vn -0.1508 0.4449 0.8828
vn 0.6423 0.6328 0.4325
vn -0.0835 0.1546 0.9844
vn 0.7730 0.3646 0.5192
vn 0.3110 0.1556 0.9376
vn 0.2145 -0.2431 0.9460
vn -0.1717 0.1129 0.9787
vn 0.1360 0.7846 0.6049
vn -0.8994 -0.0746 0.4308
vn -0.0512 -0.5904 0.8055
vn -0.0526 -0.3095 0.9494
vn 0.4012 -0.0744 0.9130
vn -0.5969 0.1088 0.7949
vn 0.0985 0.0096 0.9951
vn -0.4023 0.6233 0.6705
vn -0.0066 0.0283 0.9996
vn 0.2637 -0.8567 0.4433
vn 0.7763 -0.4169 0.4727
vn 0.8708 -0.0634 0.4875
vn 0.8311 -0.0433 0.5545
vn 0.7765 0.3041 0.5519
vn -0.0635 0.0623 0.9960
vn -0.1246 0.0817 0.9888
vn 0.1709 -0.3560 0.9187
vn 0.1810 -0.2244 0.9575
vn 0.5476 -0.1408 0.8248
vn -0.2138 -0.5835 0.7835
vn 0.6437 -0.0240 0.7649
vn -0.0384 -0.4299 0.9020
vn 0.5386 0.1988 0.8188
vn 0.6368 0.1522 0.7559
# 176 vertex normals

vt 0.7021 0.8205 0.0000
vt 0.8329 0.8965 0.0000
vt 0.8445 0.8848 0.0000
vt 0.7300 0.7925 0.0000
vt 0.1873 0.4087 0.0000
vt 0.2180 0.3778 0.0000
vt 0.1680 0.3561 0.0000
vt 0.1487 0.3923 0.0000
vt 0.2515 0.7107 3.4680
vt 0.2733 0.7395 3.4680
vt 0.2448 0.7622 3.4680
vt 0.7233 0.4348 0.4286
vt 0.7094 0.4659 0.4286
vt 0.6279 0.4055 0.4286
vt 0.6365 0.3787 0.4286
vt 0.9765 0.9743 0.0000
vt 0.9699 0.9677 0.0000
vt 0.6141 0.6898 0.0000
vt 0.5740 0.7301 0.0000
vt 0.5091 0.5942 0.0000
vt 0.4697 0.6338 0.0000
vt 0.4031 0.5162 0.0000
vt 0.3727 0.5468 0.0000
vt 0.8597 0.8696 0.0000
vt 0.7560 0.7664 0.0000
vt 0.6464 0.6573 0.0000
vt 0.5458 0.5573 0.0000
vt 0.2741 0.4796 0.0000
vt 0.3046 0.4489 0.0000
vt 0.4536 0.4655 0.0000
vt 0.4129 0.5064 0.0000
vt 0.3705 0.3828 0.0000
vt 0.3153 0.4383 0.0000
vt 0.2914 0.3041 0.0000
vt 0.2275 0.3683 0.0000
vt 0.5375 0.2978 0.4286
vt 0.5563 0.2737 0.4286
vt 0.5083 0.1991 0.4286
vt 0.5337 0.2018 0.4286
vt 0.9123 0.2157 0.4286
vt 0.8332 0.3338 0.4286
vt 0.7987 0.2534 0.4286
vt 0.8579 0.1860 0.4286
vt 0.7344 0.1824 0.4286
vt 0.7712 0.1289 0.4286
vt 0.6498 0.1363 0.4286
vt 0.7010 0.0802 0.4286
vt 0.6263 0.0869 0.4286
vt 0.6626 0.0597 0.4286
vt 0.5742 0.1529 0.4286
vt 0.5639 0.1175 0.4286
vt 0.0854 0.1019 0.0000
vt 0.0206 0.0304 0.0000
vt 0.0689 0.1227 0.0000
vt 0.4483 0.9515 -3.4680
vt 0.2761 0.8628 3.4680
vt 0.3265 0.8029 3.4680
vt 0.0918 0.3259 0.0000
vt 0.1162 0.3779 0.0000
vt 0.0758 0.1714 0.0000
vt 0.1642 0.1777 0.0000
vt 0.8826 0.6825 -0.4286
vt 0.8228 0.6196 0.4286
vt 0.8417 0.6076 0.4286
vt 0.7844 0.5746 0.5090
vt 0.8175 0.5565 0.4286
vt 0.8237 0.3973 0.4286
vt 0.8388 0.3971 0.4286
vt 0.1915 0.7341 3.4680
vt 0.2231 0.6734 3.4680
vt 0.7391 0.5282 0.4286
vt 0.6924 0.4943 0.4286
vt 0.7521 0.5084 0.4286
vt 0.2298 0.2428 0.0000
vt 0.1766 0.3453 0.0000
vt 0.1092 0.3065 0.0000
vt 0.6109 0.4315 0.4286
vt 0.5137 0.3119 0.4286
vt 0.4818 0.1966 0.4286
vt 0.5433 0.0968 -0.4286
vt 0.6108 0.0588 0.4286
vt 0.6623 0.0284 0.4286
vt 0.6622 0.0590 0.4286
vt 0.7151 0.0535 0.4286
vt 0.7014 0.0794 0.4286
vt 0.6627 0.0589 0.4286
vt 0.7877 0.1103 0.4286
vt 0.7722 0.1277 0.4286
vt 0.8771 0.1665 0.4286
vt 0.7720 0.2597 0.4286
vt 0.7165 0.2002 0.4286
vt 0.6463 0.1642 0.4286
vt 0.5868 0.1737 0.4286
vt 0.5570 0.2077 0.4286
vt 0.5783 0.2619 0.4286
vt 0.6486 0.3507 0.4286
vt 0.7293 0.4027 0.4286
vt 0.3023 0.7732 3.4680
vt 0.0755 0.2197 0.0000
vt 0.0887 0.2574 0.0000
vt 0.8082 0.3343 0.4286
vt 0.8038 0.3851 0.4286
vt 0.7862 0.4323 0.4286
vt 0.7735 0.4041 0.4286
vt 0.9793 0.2411 0.4286
vt 0.9194 0.3093 0.4286
vt 0.1745 0.3478 0.0000
vt 0.1045 0.3104 0.0000
vt 0.8019 0.4912 0.4286
vt 0.7994 0.4939 0.4286
vt 0.2258 0.3701 0.0000
vt 0.0680 0.2715 0.0000
vt 0.0822 0.2584 0.0000
vt 0.0864 0.7149 3.4680
vt 0.1899 0.6323 3.4680
vt 0.0626 0.4749 -3.4680
vt 0.4110 0.5084 0.0000
vt 0.3136 0.4399 0.0000
vt 0.0719 0.2207 0.0000
vt 0.8202 0.7018 0.0000
vt 0.7896 0.7326 0.0000
vt 0.8839 0.8452 0.0000
vt 0.8970 0.8321 0.0000
vt 0.4051 0.1899 0.0000
vt 0.3890 0.1505 0.0000
vt 0.3504 0.1724 0.0000
vt 0.3749 0.2202 0.0000
vt 0.3061 0.7125 3.4680
vt 0.7244 0.4347 0.4286
vt 0.6372 0.3786 0.4286
vt 0.6286 0.4055 0.4286
vt 0.7106 0.4659 0.4286
vt 0.6872 0.6163 0.0000
vt 0.7263 0.5770 0.0000
vt 0.5889 0.5139 0.0000
vt 0.6266 0.4761 0.0000
vt 0.5054 0.4134 0.0000
vt 0.5356 0.3831 0.0000
vt 0.8656 0.8636 0.0000
vt 0.7619 0.7604 0.0000
vt 0.6523 0.6513 0.0000
vt 0.5518 0.5513 0.0000
vt 0.4367 0.3162 0.0000
vt 0.4672 0.2856 0.0000
vt 0.4957 0.4232 0.0000
vt 0.4596 0.4595 0.0000
vt 0.4262 0.3267 0.0000
vt 0.3764 0.3768 0.0000
vt 0.3639 0.2313 0.0000
vt 0.2974 0.2981 0.0000
vt 0.5564 0.2735 0.4286
vt 0.5376 0.2977 0.4286
vt 0.5335 0.2013 0.4286
vt 0.5081 0.1987 0.4286
vt 0.9135 0.2143 0.4286
vt 0.8588 0.1846 0.4286
vt 0.7996 0.2524 0.4286
vt 0.8345 0.3330 0.4286
vt 0.7717 0.1276 0.4286
vt 0.7349 0.1813 0.4286
vt 0.7011 0.0789 0.4286
vt 0.6499 0.1353 0.4286
vt 0.6624 0.0584 0.4286
vt 0.6262 0.0858 0.4286
vt 0.5636 0.1167 0.4286
vt 0.5740 0.1522 0.4286
vt 0.0910 0.0946 0.0000
vt 0.1126 0.0790 0.0000
vt 0.3281 0.8016 3.4680
vt 0.3972 0.7648 3.4680
vt 0.3100 0.0993 0.0000
vt 0.3676 0.1171 0.0000
vt 0.1604 0.0882 0.0000
vt 0.1693 0.1712 0.0000
vt 0.8851 0.6828 -0.4286
vt 0.8438 0.6078 0.4286
vt 0.8249 0.6199 0.4286
vt 0.8194 0.5565 0.4286
vt 0.7875 0.5740 0.4286
vt 0.8251 0.3968 0.4286
vt 0.8402 0.3965 0.4286
vt 0.2891 0.6551 3.4680
vt 0.7405 0.5283 0.4286
vt 0.7535 0.5085 0.4286
vt 0.6937 0.4945 0.4286
vt 0.3389 0.1852 0.0000
vt 0.2353 0.2363 0.0000
vt 0.2977 0.1200 0.0000
vt 0.6116 0.4317 0.4286
vt 0.4814 0.1963 0.4286
vt 0.5428 0.0960 -0.4286
vt 0.6105 0.0576 0.4286
vt 0.6620 0.0576 0.4286
vt 0.6621 0.0269 0.4286
vt 0.6626 0.0576 0.4286
vt 0.7015 0.0780 0.4286
vt 0.7151 0.0520 0.4286
vt 0.7727 0.1263 0.4286
vt 0.7882 0.1088 0.4286
vt 0.8780 0.1650 0.4286
vt 0.7728 0.2588 0.4286
vt 0.7170 0.1992 0.4286
vt 0.6464 0.1633 0.4286
vt 0.5868 0.1730 0.4286
vt 0.5569 0.2072 0.4286
vt 0.5785 0.2616 0.4286
vt 0.6492 0.3504 0.4286
vt 0.7304 0.4024 0.4286
vt 0.3031 0.7726 3.4680
vt 0.2466 0.0969 0.0000
vt 0.2020 0.0824 0.0000
vt 0.8094 0.3335 0.4286
vt 0.8051 0.3846 0.4286
vt 0.7747 0.4037 0.4286
vt 0.7876 0.4320 0.4286
vt 0.9209 0.3082 0.4286
vt 0.9808 0.2396 0.4286
vt 0.3008 0.1135 0.0000
vt 0.3401 0.1810 0.0000
vt 0.8011 0.4937 0.4286
vt 0.8035 0.4910 0.4286
vt 0.3662 0.2290 0.0000
vt 0.2579 0.0770 0.0000
vt 0.2488 0.0910 0.0000
vt 0.2923 0.5484 3.4680
vt 0.4977 0.4212 0.0000
vt 0.4277 0.3252 0.0000
vt 0.2059 0.0774 0.0000
vt 0.8217 0.6211 1.1385
# 229 texture coords

o 001
g 001
usemtl 07___Default
s 1
f 4/4/4 3/3/3 2/2/2 1/1/1 
f 8/8/8 7/7/7 6/6/6 5/5/5 
s 2
f 11/11/11 10/10/10 9/9/9 
s 1
f 15/15/15 14/14/14 13/13/13 12/12/12 
f 3/3/3 17/17/17 16/16/16 2/2/2 
f 4/4/4 1/1/1 19/19/19 18/18/18 
f 18/18/18 19/19/19 21/21/21 20/20/20 
f 20/20/20 21/21/21 23/23/23 22/22/22 
f 3/3/3 24/24/24 17/17/17 
f 4/4/4 25/25/25 24/24/24 3/3/3 
f 18/18/18 26/26/26 25/25/25 4/4/4 
f 20/20/20 27/27/27 26/26/26 18/18/18 
f 29/29/29 28/28/28 5/5/5 6/6/6 
f 29/29/29 22/22/22 23/23/23 28/28/28 
f 31/31/31 30/30/30 27/27/27 20/20/20 
f 33/33/33 32/32/32 30/30/30 31/31/31 
f 35/35/35 34/34/34 32/32/32 33/33/33 
f 37/37/37 36/36/36 14/14/14 15/15/15 
f 39/39/39 38/38/38 36/36/36 37/37/37 
f 43/43/43 42/42/42 41/41/41 40/40/40 
f 45/45/45 44/44/44 42/42/42 43/43/43 
f 47/47/47 46/46/46 44/44/44 45/45/45 
f 49/49/49 48/48/48 46/46/46 47/47/47 
f 51/51/51 50/50/50 46/46/46 48/48/48 
f 38/38/38 39/39/39 50/50/50 51/51/51 
f 54/54/54 53/53/53 52/52/52 
f 56/57/56 55/56/55 8/55/8 
f 7/7/7 8/8/8 55/59/55 57/58/57 
f 54/54/54 52/52/52 59/61/59 58/60/58 
f 54/64/54 60/63/60 53/62/53 
f 58/66/58 61/65/61 60/63/60 54/64/54 
f 63/68/63 41/41/41 62/67/62 
f 11/11/11 9/9/9 65/70/65 64/69/64 
s 2
f 68/73/68 13/13/13 67/72/67 66/71/66 
s 1
f 70/75/70 69/74/69 34/34/34 35/35/35 
f 71/76/71 69/74/69 70/75/70 
s 2
f 13/13/13 14/14/14 72/77/72 67/72/67 
f 14/14/14 36/36/36 73/78/73 72/77/72 
f 36/36/36 38/38/38 74/79/74 73/78/73 
s 4
f 38/38/38 51/51/51 75/80/75 74/79/74 
s 2
f 51/51/51 48/48/48 76/81/76 75/80/75 
s 4
f 48/48/48 78/83/78 77/82/77 76/81/76 
s 1
f 81/86/81 80/85/80 79/84/79 77/82/77 
f 80/85/80 83/88/83 82/87/82 79/84/79 
f 83/88/83 43/43/43 84/89/84 82/87/82 
f 43/43/43 40/40/40 84/89/84 
s 2
f 42/42/42 44/44/44 86/91/86 85/90/85 
f 44/44/44 46/46/46 87/92/87 86/91/86 
s 4
f 46/46/46 50/50/50 88/93/88 87/92/87 
s 2
f 50/50/50 39/39/39 89/94/89 88/93/88 
s 4
f 39/39/39 37/37/37 90/95/90 89/94/89 
f 37/37/37 15/15/15 91/96/91 90/95/90 
f 15/15/15 12/12/12 92/97/92 91/96/91 
s 1
f 55/56/55 56/57/56 93/98/93 11/11/11 
f 95/100/95 94/99/94 58/60/58 59/61/59 
s 2
f 66/71/66 61/65/61 68/73/68 
f 42/42/42 85/90/85 96/101/96 41/41/41 
s 4
f 41/41/41 96/101/96 97/102/97 62/67/62 
s 2
f 97/102/97 99/104/99 98/103/98 62/67/62 
s 8
f 99/104/99 92/97/92 12/12/12 98/103/98 
s 1
f 57/106/57 55/105/55 40/40/40 41/41/41 
f 57/58/57 101/108/101 100/107/100 7/7/7 
f 63/68/63 98/103/98 94/110/94 102/109/102 
f 7/7/7 100/107/100 103/111/103 6/6/6 
f 104/113/104 101/108/101 57/58/57 63/112/63 
f 94/110/94 98/103/98 68/73/68 
f 61/65/61 58/66/58 94/110/94 68/73/68 
f 98/103/98 12/12/12 13/13/13 68/73/68 
f 71/76/71 95/100/95 59/61/59 69/74/69 
f 65/70/65 105/115/105 40/114/40 64/69/64 
f 55/56/55 11/11/11 64/69/64 
f 93/98/93 10/10/10 11/11/11 
f 40/114/40 55/56/55 64/69/64 
f 105/115/105 84/116/84 40/114/40 
f 22/22/22 106/117/106 20/20/20 
f 29/29/29 107/118/107 106/117/106 22/22/22 
f 6/6/6 103/111/103 107/118/107 29/29/29 
f 63/112/63 102/119/102 104/113/104 
f 63/68/63 57/106/57 41/41/41 
f 63/68/63 62/67/62 98/103/98 
f 2/123/2 109/122/109 108/121/108 1/120/1 
f 111/127/111 110/126/110 8/125/8 5/124/5 
s 4
f 10/10/10 112/128/112 9/9/9 
s 1
f 116/132/116 115/131/115 114/130/114 113/129/113 
f 16/16/16 17/17/17 109/122/109 2/123/2 
f 19/134/19 1/120/1 108/121/108 117/133/117 
f 21/136/21 19/134/19 117/133/117 118/135/118 
f 23/138/23 21/136/21 118/135/118 119/137/119 
f 120/139/120 109/122/109 17/17/17 
f 120/139/120 121/140/121 108/121/108 109/122/109 
f 121/140/121 122/141/122 117/133/117 108/121/108 
f 122/141/122 123/142/123 118/135/118 117/133/117 
f 5/124/5 28/144/28 124/143/124 111/127/111 
f 23/138/23 119/137/119 124/143/124 28/144/28 
f 123/142/123 126/146/126 125/145/125 118/135/118 
f 126/146/126 128/148/128 127/147/127 125/145/125 
f 128/148/128 130/150/130 129/149/129 127/147/127 
f 115/131/115 132/152/132 131/151/131 114/130/114 
f 132/152/132 134/154/134 133/153/133 131/151/131 
f 138/158/138 137/157/137 136/156/136 135/155/135 
f 137/157/137 140/160/140 139/159/139 136/156/136 
f 140/160/140 142/162/142 141/161/141 139/159/139 
f 142/162/142 144/164/144 143/163/143 141/161/141 
f 142/162/142 146/166/146 145/165/145 144/164/144 
f 146/166/146 133/153/133 134/154/134 145/165/145 
f 53/53/53 148/168/148 147/167/147 
f 150/170/150 149/169/149 8/55/8 
f 150/172/150 8/125/8 110/126/110 151/171/151 
f 153/174/153 147/167/147 148/168/148 152/173/152 
f 154/177/154 148/176/148 53/175/53 
f 154/177/154 61/179/61 152/178/152 148/176/148 
f 138/158/138 156/181/156 155/180/155 
f 65/70/65 9/9/9 112/128/112 157/182/157 
s 2
f 67/185/67 116/132/116 158/184/158 66/183/66 
s 1
f 130/150/130 160/187/160 159/186/159 129/149/129 
f 160/187/160 161/188/161 159/186/159 
s 2
f 72/189/72 115/131/115 116/132/116 67/185/67 
f 73/78/73 132/152/132 115/131/115 72/189/72 
f 74/190/74 134/154/134 132/152/132 73/78/73 
s 4
f 75/191/75 145/165/145 134/154/134 74/190/74 
s 2
f 76/192/76 144/164/144 145/165/145 75/191/75 
s 4
f 77/194/77 162/193/162 144/164/144 76/192/76 
s 1
f 79/197/79 164/196/164 163/195/163 77/194/77 
f 82/199/82 165/198/165 164/196/164 79/197/79 
f 84/200/84 136/156/136 165/198/165 82/199/82 
f 135/155/135 136/156/136 84/200/84 
s 8
f 86/202/86 140/160/140 137/157/137 85/201/85 
f 87/203/87 142/162/142 140/160/140 86/202/86 
s 16
f 88/204/88 146/166/146 142/162/142 87/203/87 
s 8
f 89/205/89 133/153/133 146/166/146 88/204/88 
s 16
f 90/206/90 131/151/131 133/153/133 89/205/89 
f 91/207/91 114/130/114 131/151/131 90/206/90 
f 92/208/92 113/129/113 114/130/114 91/207/91 
s 1
f 166/209/166 149/169/149 150/170/150 112/128/112 
f 152/173/152 168/211/168 167/210/167 153/174/153 
s 2
f 61/179/61 66/183/66 158/184/158 
s 8
f 96/212/96 85/201/85 137/157/137 138/158/138 
s 16
f 97/213/97 96/212/96 138/158/138 155/180/155 
s 32
f 169/215/169 99/214/99 97/213/97 155/180/155 
s 64
f 113/129/113 92/208/92 99/214/99 169/215/169 
s 1
f 135/155/135 150/217/150 151/216/151 138/158/138 
f 171/219/171 170/218/170 151/171/151 110/126/110 
f 169/215/169 156/181/156 172/221/172 168/220/168 
f 173/222/173 171/219/171 110/126/110 111/127/111 
f 151/171/151 170/218/170 174/224/174 156/223/156 
f 169/215/169 168/220/168 158/184/158 
f 168/220/168 152/178/152 61/179/61 158/184/158 
f 116/132/116 113/129/113 169/215/169 158/184/158 
f 153/174/153 167/210/167 161/188/161 160/187/160 
f 135/225/135 105/115/105 65/70/65 157/182/157 
f 112/128/112 150/170/150 157/182/157 
f 10/10/10 166/209/166 112/128/112 
f 150/170/150 135/225/135 157/182/157 
f 84/116/84 105/115/105 135/225/135 
f 175/226/175 119/137/119 118/135/118 
f 175/226/175 176/227/176 124/143/124 119/137/119 
f 176/227/176 173/222/173 111/127/111 124/143/124 
f 172/228/172 156/223/156 174/224/174 
f 151/216/151 156/181/156 138/158/138 
f 155/180/155 156/181/156 169/215/169 
s 2
f 24/24/24 120/139/120 17/17/17 
f 24/24/24 25/25/25 121/140/121 120/139/120 
f 25/25/25 26/26/26 122/141/122 121/140/121 
f 26/26/26 27/27/27 123/142/123 122/141/122 
s 4
f 27/27/27 30/30/30 126/146/126 123/142/123 
f 30/30/30 32/32/32 128/148/128 126/146/126 
f 32/32/32 34/34/34 130/150/130 128/148/128 
s 2
f 52/52/52 53/53/53 147/167/147 
s 4
f 59/61/59 52/52/52 147/167/147 153/174/153 
s 8
f 60/63/60 154/229/154 53/62/53 
f 60/63/60 61/65/61 154/229/154 
s 2
f 34/34/34 69/74/69 160/187/160 130/150/130 
s 8
f 69/74/69 59/61/59 153/174/153 160/187/160 
s 1
f 106/117/106 31/31/31 20/20/20 
f 106/117/106 107/118/107 33/33/33 31/31/31 
f 107/118/107 103/111/103 35/35/35 33/33/33 
f 103/111/103 100/107/100 70/75/70 35/35/35 
f 100/107/100 101/108/101 71/76/71 70/75/70 
f 104/113/104 102/119/102 94/99/94 95/100/95 
f 95/100/95 71/76/71 101/108/101 104/113/104 
f 175/226/175 118/135/118 125/145/125 
f 176/227/176 175/226/175 125/145/125 127/147/127 
f 173/222/173 176/227/176 127/147/127 129/149/129 
f 171/219/171 173/222/173 129/149/129 159/186/159 
f 170/218/170 171/219/171 159/186/159 161/188/161 
f 172/228/172 174/224/174 167/210/167 168/211/168 
f 161/188/161 167/210/167 174/224/174 170/218/170 
s 8
f 49/49/49 81/86/81 78/83/78 
s 16
f 143/163/143 162/193/162 163/195/163 
s 2
f 83/88/83 45/45/45 43/43/43 
f 83/88/83 80/85/80 47/47/47 45/45/45 
s 8
f 78/83/78 48/48/48 49/49/49 
s 2
f 80/85/80 81/86/81 49/49/49 47/47/47 
s 8
f 81/86/81 77/82/77 78/83/78 
s 2
f 165/198/165 136/156/136 139/159/139 
f 164/196/164 165/198/165 139/159/139 141/161/141 
f 163/195/163 164/196/164 141/161/141 143/163/143 
s 16
f 162/193/162 143/163/143 144/164/144 
f 163/195/163 162/193/162 77/194/77 
s 8
f 149/169/149 56/57/56 8/55/8 
f 149/169/149 166/209/166 93/98/93 56/57/56 
f 166/209/166 10/10/10 93/98/93 
# 150 polygons - 52 triangles

